<svg xmlns="http://www.w3.org/2000/svg" width="226px" height="42px" viewBox="0 0 226 42">
	<g fill="#515962">
		<path d="M101.3453,28.3959V12.5276h3.1378v15.958h-3.1378V28.3959z M48.0921,28.4856V13.6034h5.5584c2.5999,0,5.3791,0.5379,5.3791,3.7654c0,1.6137-0.9862,2.7792-2.5102,3.2275c1.9723,0.269,3.2275,1.7034,3.2275,3.6757c0,3.1378-2.9585,4.124-5.5584,4.124h-6.0963V28.4856z M53.8299,22.2996h-1.7034c-0.0897-1.793,0.3586-2.6896,1.6137-2.7792c0.9862-0.0897,2.062-0.4483,2.062-1.6137c0-1.2551-1.1655-1.5241-2.2413-1.5241h-2.2413v2.5999v4.8412v1.8827h2.9585c0.9862,0,2.1516-0.4483,2.1516-1.7034C56.5194,22.5686,54.9057,22.2996,53.8299,22.2996z M61.3606,28.3959V18.1756h3.1378v1.7034c0.7172-1.2551,1.6137-1.8827,2.9585-1.8827c0.3586,0,0.7172,0,1.0758,0.0897v2.8689c-0.4483-0.0897-0.8965-0.1793-1.3448-0.1793c-2.4206,0-2.6896,1.4344-2.6896,3.4068v4.3033h-3.1378V28.3959z M75.6152,28.3959v-1.2551c-0.7172,1.0758-1.9723,1.5241-3.3171,1.5241c-1.8827,0-3.6757-1.0758-3.6757-3.1378c0-3.5861,4.3033-3.5861,6.9032-3.5861c0-1.0758-0.8965-1.793-2.062-1.793c-1.0758,0-1.8827,0.4483-2.5999,1.2551l-1.7034-1.7034c1.1655-1.0758,2.8689-1.6137,4.4826-1.6137c3.6757,0,4.6619,1.8827,4.6619,5.2895v5.1998h-2.6896V28.3959z M75.6152,23.9133h-0.8069c-0.9862,0-3.1378,0.0897-3.1378,1.4344c0,0.7172,0.8069,1.0758,1.5241,1.0758c1.2551,0,2.4206-0.6276,2.4206-1.8827V23.9133z M88.3458,19.2514l-1.9723,1.8827c-0.4483-0.5379-1.0758-0.8965-1.793-0.8965c-0.5379,0-1.1655,0.269-1.1655,0.8069c0,1.5241,5.3791,0.269,5.3791,4.124c0,2.5999-2.5102,3.4068-4.7515,3.4068c-1.4344,0-3.0482-0.3586-4.0343-1.4344l1.8827-2.1516c0.6276,0.7172,1.2551,1.0758,2.2413,1.0758c0.7172,0,1.4344-0.1793,1.4344-0.7172c0-1.6137-5.3791-0.269-5.3791-4.124c0-2.4206,2.1516-3.4964,4.3033-3.4964C85.8355,17.9067,87.3596,18.2653,88.3458,19.2514z M96.5041,28.3959v-1.2551c-0.7172,1.0758-1.9723,1.5241-3.3171,1.5241c-1.8827,0-3.6757-1.0758-3.6757-3.1378c0-3.5861,4.3033-3.5861,6.9032-3.5861c0-1.0758-0.8965-1.793-2.062-1.793c-1.0758,0-1.8827,0.4483-2.5999,1.2551l-1.7034-1.7034c1.1655-1.0758,2.8689-1.6137,4.4826-1.6137c3.6757,0,4.6619,1.8827,4.6619,5.2895v5.1998h-2.6896V28.3959z M96.5041,23.9133h-0.8069c-0.9862,0-3.1378,0.0897-3.1378,1.4344c0,0.7172,0.8069,1.0758,1.5241,1.0758c1.2551,0,2.4206-0.6276,2.4206-1.8827V23.9133z"/>
		<rect x="108.3381" y="18.1756" width="1.4344" height="10.2203"/>
		<polygon points="112.3724,28.4856 113.8069,28.4856 113.8069,20.0583 113.8965,20.0583 118.5584,28.4856 120.4411,28.4856 120.4411,18.1756 118.917,18.1756 118.917,26.4236 118.917,26.4236 114.3448,18.1756 112.3724,18.1756 "/>
		<path d="M130.2131,18.4446c-0.7172-0.3586-1.5241-0.4483-2.3309-0.4483c-3.1378,0-5.3791,2.062-5.3791,5.2895s2.1516,5.3791,5.3791,5.3791c0.6276,0,1.5241,0,2.3309-0.3586l-0.0897-1.4344c-0.5379,0.269-1.5241,0.5379-2.2413,0.5379c-2.1516,0-3.855-1.6137-3.855-4.0343c0-2.3309,1.6137-4.0343,3.9447-4.0343c0.7172,0,1.4344,0.1793,2.1516,0.5379L130.2131,18.4446z"/>
		<path d="M132.9923,23.2858c0-2.062,1.0758-4.0343,3.4068-4.0343c2.2413,0,3.4068,1.8827,3.4068,4.0343c0,2.062-0.9862,4.0343-3.4068,4.0343C133.9785,27.3201,132.9923,25.3478,132.9923,23.2858z M131.4683,23.2858c0,3.1378,1.793,5.2895,4.9308,5.2895c3.1378,0,4.9308-2.1516,4.9308-5.2895c0-3.0482-1.793-5.2895-4.9308-5.2895C133.2613,17.9963,131.4683,20.2376,131.4683,23.2858z"/>
		<path d="M143.3023,28.4856h1.4344v-4.5722h0.8965c0.8069,0,1.2551,0,1.7034,0.9862l1.6137,3.5861h1.7034l-1.9723-4.124c-0.3586-0.6276-0.5379-0.8069-0.9862-0.9862c1.1655-0.1793,2.1516-1.0758,2.1516-2.3309c0-2.4206-1.9723-2.7792-3.9447-2.7792h-2.5103v10.2203H143.3023z M144.8264,19.5204h1.4344c1.3448,0,2.062,0.6276,2.062,1.5241c0,0.9862-0.8069,1.6137-2.2413,1.6137h-1.2551V19.5204z"/>
		<path d="M153.7915,19.5204h1.2551c0.8965,0,2.2413,0.4483,2.2413,1.793s-1.1655,1.793-2.062,1.793h-1.4344V19.5204z M152.2675,28.4856h1.4344v-4.124h1.4344c1.8827,0,3.5861-0.8069,3.5861-3.0482c0-2.3309-1.793-3.0482-3.855-3.0482h-2.6895v10.2203H152.2675z"/>
		<path d="M161.5912,23.2858c0-2.062,1.0758-4.0343,3.4068-4.0343c2.2413,0,3.4068,1.8827,3.4068,4.0343c0,2.062-0.9862,4.0343-3.4068,4.0343C162.5774,27.3201,161.5912,25.3478,161.5912,23.2858z M160.0672,23.2858c0,3.1378,1.793,5.2895,4.9308,5.2895c3.1378,0,4.9308-2.1516,4.9308-5.2895c0-3.0482-1.793-5.2895-4.9308-5.2895C161.8602,17.9963,160.0672,20.2376,160.0672,23.2858z"/>
		<path d="M171.9012,28.4856h1.4344v-4.5722h0.8965c0.8069,0,1.2551,0,1.7034,0.9862l1.6137,3.5861h1.7034l-1.9723-4.124c-0.3586-0.6276-0.5379-0.8069-0.9862-0.9862c1.1655-0.1793,2.1516-1.0758,2.1516-2.3309c0-2.4206-1.9723-2.7792-3.9447-2.7792h-2.5103v10.2203H171.9012z M173.3356,19.5204h1.4344c1.3448,0,2.062,0.6276,2.062,1.5241c0,0.9862-0.8069,1.6137-2.2413,1.6137h-1.2551V19.5204z"/>
		<path d="M179.8802,28.4856h1.5241l1.0758-2.5999h5.0205l1.0758,2.5999h1.6137l-4.3033-10.2203h-1.5241L179.8802,28.4856z M186.9627,24.6305h-4.124l2.062-5.1101L186.9627,24.6305z"/>
		<path d="M198.7967,18.4446c-0.7172-0.3586-1.5241-0.4483-2.3309-0.4483c-3.1378,0-5.3791,2.062-5.3791,5.2895c0,2.8689,1.7034,4.8412,4.3929,5.2895l-0.8965,1.1655l0.269,0.269c0.1793-0.0897,0.3586-0.0897,0.6276-0.0897c0.3586,0,0.7172,0.1793,0.7172,0.5379c0,0.5379-0.4483,0.7172-0.8069,0.7172c-0.3586,0-0.6276-0.0897-0.9862-0.1793l-0.269,0.5379c0.3586,0.1793,0.8069,0.269,1.2551,0.269c0.8965,0,1.8827-0.3586,1.8827-1.3448c0-0.7172-0.5379-1.0758-1.2551-1.0758c-0.1793,0-0.3586,0-0.4483,0.0897l0.5379-0.7172c0.0896,0,0.1793,0,0.3586,0c0.6276,0,1.5241,0,2.3309-0.3586l-0.0897-1.4344c-0.5379,0.269-1.5241,0.5379-2.2413,0.5379c-2.1516,0-3.855-1.6137-3.855-4.0343c0-2.3309,1.6137-4.0343,3.9447-4.0343c0.7172,0,1.4344,0.1793,2.1516,0.5379L198.7967,18.4446z"/>
		<path d="M203.1897,17.3688c0-0.3586,0.269-0.7172,0.7172-0.7172c0.6276,0,1.5241,0.7172,2.2413,0.7172c0.9862,0,1.2551-0.9862,1.3448-1.6137h-0.7172c0,0.3586-0.269,0.7172-0.7172,0.7172c-0.6276,0-1.5241-0.7172-2.2413-0.7172c-0.9862,0-1.2551,0.9862-1.3448,1.6137H203.1897z M201.5759,23.2858c0-2.062,1.0758-4.0343,3.4068-4.0343c2.2413,0,3.4068,1.8827,3.4068,4.0343c0,2.062-0.9862,4.0343-3.4068,4.0343C202.5621,27.3201,201.5759,25.3478,201.5759,23.2858z M200.0518,23.2858c0,3.1378,1.793,5.2895,4.9308,5.2895c3.1378,0,4.9308-2.1516,4.9308-5.2895c0-3.0482-1.793-5.2895-4.9308-5.2895C201.8449,17.9963,200.0518,20.2376,200.0518,23.2858z"/>
		<polygon points="212.0652,28.4856 217.8029,28.4856 217.8029,27.1408 213.4996,27.1408 213.4996,23.734 217.4443,23.734 217.4443,22.4789 213.4996,22.4789 213.4996,19.5204 217.8029,19.5204 217.8029,18.1756 212.0652,18.1756 "/>
		<path d="M225.0647,18.3549c-0.7172-0.269-1.5241-0.3586-2.1516-0.3586c-1.8827,0-3.3171,0.9862-3.3171,2.7792c0,3.2275,4.3929,2.5999,4.3929,4.8412c0,1.1655-1.1655,1.7034-1.9724,1.7034c-0.7172,0-1.6137-0.269-2.1516-0.5379l-0.1793,1.3448c0.7172,0.1793,1.3448,0.4483,2.062,0.4483c2.062,0,3.7654-0.8965,3.7654-3.0482c0-3.4068-4.3929-2.9585-4.3929-4.9308c0-1.0758,0.9862-1.3448,1.793-1.3448c0.8069,0,1.1655,0.0897,1.8827,0.4483L225.0647,18.3549z"/>
	</g>
	<path fill="#BF0811" d="M42.0855,22.5686c-0.8069,10.7582-9.772,19.2751-20.7992,19.2751C10.2591,41.9333,1.2939,33.4164,0.4871,22.5686h6.7239c0.8069,7.0825,6.8135,12.6409,14.0753,12.6409s13.2685-5.5584,14.0753-12.6409H42.0855z M0.4871,19.4307C1.2939,8.6725,10.3488,0.1556,21.2863,0.1556s19.9923,8.5169,20.7992,19.2751h-6.7239c-0.8069-7.0825-6.8135-12.5512-14.0753-12.5512S8.0178,12.3483,7.2109,19.4307H0.4871z"/>
</svg>
