<svg xmlns="http://www.w3.org/2000/svg" width="200" height="47" viewBox="0 0 200 47" fill="none"><g id="Logo"><g id="Group"><path id="Vector" d="M76.3906 38.9199H74.3516V46.2343H76.3906V38.9199Z" fill="#919BA5"></path><path id="Vector_2" d="M84.3933 41.7474L84.4909 43.3413H84.3514L83.2866 41.6608L81.2708 38.9199H79.1016V46.2343H81.1406V43.3741L81.0546 41.9768H81.1941L82.1171 43.4186L84.2631 46.2343H86.4323V38.9199H84.3933V41.7474Z" fill="#919BA5"></path><path id="Vector_3" d="M94.3288 44.1114C94.0986 44.2893 93.6825 44.3783 93.0826 44.3783C92.5897 44.3783 92.2107 44.3291 91.9387 44.2308C91.6667 44.1325 91.4784 43.9523 91.3691 43.6901C91.2598 43.428 91.2063 43.0558 91.2063 42.576C91.2063 42.0962 91.2598 41.717 91.3691 41.4572C91.4784 41.1997 91.6667 41.0218 91.9387 40.9212C92.2107 40.8229 92.5897 40.7737 93.0826 40.7737C93.6825 40.7737 94.0986 40.8627 94.3288 41.0406C94.466 41.1459 94.5567 41.298 94.6125 41.4876H96.9258C96.87 41.0195 96.7259 40.6052 96.4864 40.2494C96.1772 39.7837 95.7308 39.4279 95.1472 39.1798C94.566 38.9317 93.8661 38.8076 93.0477 38.8076C92.2293 38.8076 91.49 38.9621 90.8901 39.2711C90.2903 39.58 89.8323 40.0177 89.5137 40.5818C89.1952 41.1459 89.0371 41.8106 89.0371 42.5737C89.0371 43.3367 89.1952 44.0038 89.5137 44.5655C89.8323 45.1296 90.2926 45.5673 90.8901 45.8762C91.4877 46.1852 92.2084 46.3397 93.0477 46.3397C93.8871 46.3397 94.566 46.2156 95.1472 45.9675C95.7285 45.7194 96.1749 45.3613 96.4864 44.8932C96.7584 44.4836 96.9026 44.0014 96.9375 43.4561H94.6566C94.6194 43.7463 94.5125 43.9663 94.3265 44.1067L94.3288 44.1114Z" fill="#919BA5"></path><path id="Vector_4" d="M105.677 39.2755C105.073 38.9665 104.338 38.812 103.471 38.812C102.604 38.812 101.911 38.9665 101.306 39.2755C100.702 39.5844 100.241 40.0221 99.9229 40.5862C99.6044 41.1503 99.4463 41.815 99.4463 42.578C99.4463 43.3411 99.6044 44.0082 99.9229 44.5699C100.241 45.134 100.702 45.5717 101.306 45.8806C101.911 46.1896 102.632 46.3441 103.471 46.3441C104.31 46.3441 105.073 46.1896 105.677 45.8806C106.282 45.5717 106.742 45.134 107.061 44.5699C107.379 44.0058 107.537 43.3411 107.537 42.578C107.537 41.815 107.379 41.1503 107.061 40.5862C106.742 40.0221 106.282 39.5844 105.677 39.2755ZM105.201 43.6922C105.089 43.9543 104.894 44.1345 104.622 44.2329C104.345 44.3312 103.964 44.3803 103.471 44.3803C102.978 44.3803 102.599 44.3312 102.332 44.2329C102.064 44.1345 101.878 43.9543 101.774 43.6922C101.669 43.43 101.616 43.0579 101.616 42.578C101.616 42.0982 101.667 41.719 101.774 41.4592C101.878 41.2018 102.064 41.0239 102.332 40.9232C102.599 40.8226 102.978 40.7758 103.471 40.7758C103.964 40.7758 104.345 40.8249 104.622 40.9232C104.896 41.0215 105.089 41.1994 105.201 41.4592C105.312 41.719 105.368 42.0912 105.368 42.578C105.368 43.0649 105.312 43.43 105.201 43.6922Z" fill="#919BA5"></path><path id="Vector_5" d="M116.153 43.7088C115.99 43.5239 115.721 43.3835 115.346 43.2875V43.1775C115.809 43.119 116.186 43.0043 116.474 42.8334C116.762 42.6625 116.974 42.4379 117.109 42.157C117.241 41.8761 117.309 41.5437 117.309 41.1575C117.309 40.6777 117.199 40.2705 116.978 39.9404C116.758 39.6104 116.43 39.3553 115.997 39.1821C115.565 39.0089 115.023 38.9199 114.381 38.9199H110.141V46.2343H112.18V43.7439H113.014C113.282 43.7439 113.491 43.765 113.644 43.8048C113.796 43.8446 113.919 43.9148 114.014 44.0178C114.107 44.1207 114.198 44.2612 114.286 44.4438L115.153 46.2343H117.506L116.606 44.3993C116.469 44.1231 116.318 43.8914 116.155 43.7065L116.153 43.7088ZM114.988 42.0868C114.865 42.1734 114.656 42.2178 114.358 42.2178H112.177V40.7667H114.358C114.656 40.7667 114.865 40.8135 114.988 40.9071C115.111 41.0007 115.172 41.195 115.172 41.4852C115.172 41.7989 115.111 41.9978 114.988 42.0844V42.0868Z" fill="#919BA5"></path><path id="Vector_6" d="M125.409 39.2429C124.988 39.0276 124.49 38.9199 123.911 38.9199H119.887V46.2343H121.926V44.3899H123.911C124.49 44.3899 124.988 44.2822 125.409 44.0693C125.827 43.8539 126.15 43.5426 126.378 43.1307C126.606 42.7187 126.72 42.2272 126.72 41.6514C126.72 41.0756 126.606 40.5771 126.378 40.1721C126.15 39.7696 125.827 39.4583 125.409 39.2453V39.2429ZM124.46 42.3817C124.304 42.4917 124.046 42.5455 123.686 42.5455H121.928V40.7667H123.686C124.046 40.7667 124.307 40.8205 124.46 40.9305C124.616 41.0405 124.692 41.2793 124.692 41.6514C124.692 42.0236 124.616 42.274 124.46 42.384V42.3817Z" fill="#919BA5"></path><path id="Vector_7" d="M135.336 39.2755C134.732 38.9665 133.997 38.812 133.13 38.812C132.263 38.812 131.57 38.9665 130.965 39.2755C130.361 39.5844 129.901 40.0221 129.582 40.5862C129.264 41.1503 129.105 41.815 129.105 42.578C129.105 43.3411 129.264 44.0082 129.582 44.5699C129.901 45.134 130.361 45.5717 130.965 45.8806C131.57 46.1896 132.291 46.3441 133.13 46.3441C133.969 46.3441 134.732 46.1896 135.336 45.8806C135.941 45.5717 136.401 45.134 136.72 44.5699C137.038 44.0058 137.196 43.3411 137.196 42.578C137.196 41.815 137.038 41.1503 136.72 40.5862C136.401 40.0221 135.941 39.5844 135.336 39.2755ZM134.86 43.6922C134.748 43.9543 134.553 44.1345 134.281 44.2329C134.004 44.3312 133.623 44.3803 133.13 44.3803C132.637 44.3803 132.258 44.3312 131.991 44.2329C131.723 44.1345 131.537 43.9543 131.433 43.6922C131.328 43.43 131.275 43.0579 131.275 42.578C131.275 42.0982 131.326 41.719 131.433 41.4592C131.537 41.2018 131.723 41.0239 131.991 40.9232C132.258 40.8226 132.637 40.7758 133.13 40.7758C133.623 40.7758 134.004 40.8249 134.281 40.9232C134.555 41.0215 134.748 41.1994 134.86 41.4592C134.971 41.719 135.027 42.0912 135.027 42.578C135.027 43.0649 134.971 43.43 134.86 43.6922Z" fill="#919BA5"></path><path id="Vector_8" d="M145.813 43.7088C145.65 43.5239 145.381 43.3835 145.006 43.2875V43.1775C145.469 43.119 145.846 43.0043 146.134 42.8334C146.422 42.6625 146.634 42.4379 146.769 42.157C146.901 41.8761 146.969 41.5437 146.969 41.1575C146.969 40.6777 146.859 40.2705 146.639 39.9404C146.418 39.6104 146.09 39.3553 145.657 39.1821C145.225 39.0089 144.683 38.9199 144.042 38.9199H139.801V46.2343H141.84V43.7439H142.674C142.942 43.7439 143.151 43.765 143.305 43.8048C143.456 43.8446 143.579 43.9148 143.674 44.0178C143.767 44.1207 143.858 44.2612 143.946 44.4438L144.813 46.2343H147.166L146.267 44.3993C146.129 44.1231 145.978 43.8914 145.816 43.7065L145.813 43.7088ZM144.648 42.0868C144.525 42.1734 144.316 42.2178 144.018 42.2178H141.837V40.7667H144.018C144.316 40.7667 144.525 40.8135 144.648 40.9071C144.772 41.0007 144.832 41.195 144.832 41.4852C144.832 41.7989 144.772 41.9978 144.648 42.0844V42.0868Z" fill="#919BA5"></path><path id="Vector_9" d="M152.249 38.9199L149.115 46.2343H151.403L151.966 44.8814H155.416L155.969 46.2343H158.311L155.165 38.9199H152.249ZM152.733 43.037L153.161 42.0095L153.626 40.776H153.768L154.244 42.0095L154.663 43.037H152.733Z" fill="#919BA5"></path><path id="Vector_10" d="M166.466 39.3506C165.88 39.065 165.187 38.9199 164.383 38.9199H160.707V46.2343H164.383C165.185 46.2343 165.878 46.0915 166.466 45.8036C167.052 45.5157 167.503 45.0991 167.822 44.5538C168.14 44.0084 168.298 43.3507 168.298 42.5783C168.298 41.8059 168.14 41.1482 167.822 40.6028C167.503 40.0575 167.052 39.6408 166.466 39.3529V39.3506ZM165.955 43.7837C165.845 44.0412 165.666 44.2073 165.413 44.2799C165.159 44.3525 164.818 44.3899 164.383 44.3899H162.746V40.7667H164.383C164.815 40.7667 165.159 40.8041 165.413 40.8767C165.666 40.9492 165.845 41.1131 165.955 41.3682C166.064 41.6233 166.117 42.0282 166.117 42.5806C166.117 43.133 166.064 43.5286 165.955 43.7884V43.7837Z" fill="#919BA5"></path><path id="Vector_11" d="M177.024 39.2755C176.419 38.9665 175.685 38.812 174.818 38.812C173.95 38.812 173.257 38.9665 172.653 39.2755C172.048 39.5844 171.588 40.0221 171.27 40.5862C170.951 41.1503 170.793 41.815 170.793 42.578C170.793 43.3411 170.951 44.0082 171.27 44.5699C171.588 45.134 172.048 45.5717 172.653 45.8806C173.257 46.1896 173.978 46.3441 174.818 46.3441C175.657 46.3441 176.419 46.1896 177.024 45.8806C177.628 45.5717 178.089 45.134 178.407 44.5699C178.726 44.0058 178.884 43.3411 178.884 42.578C178.884 41.815 178.726 41.1503 178.407 40.5862C178.089 40.0221 177.628 39.5844 177.024 39.2755ZM176.547 43.6922C176.436 43.9543 176.24 44.1345 175.968 44.2329C175.692 44.3312 175.31 44.3803 174.818 44.3803C174.325 44.3803 173.946 44.3312 173.678 44.2329C173.411 44.1345 173.225 43.9543 173.12 43.6922C173.016 43.43 172.962 43.0579 172.962 42.578C172.962 42.0982 173.013 41.719 173.12 41.4592C173.225 41.2018 173.411 41.0239 173.678 40.9232C173.946 40.8249 174.325 40.7758 174.818 40.7758C175.31 40.7758 175.692 40.8249 175.968 40.9232C176.243 41.0215 176.436 41.1994 176.547 41.4592C176.659 41.719 176.715 42.0912 176.715 42.578C176.715 43.0649 176.659 43.43 176.547 43.6922Z" fill="#919BA5"></path><path id="Vector_12" d="M187.501 43.7088C187.338 43.5239 187.068 43.3835 186.694 43.2875V43.1775C187.157 43.119 187.533 43.0043 187.822 42.8334C188.11 42.6625 188.321 42.4379 188.456 42.157C188.589 41.8761 188.656 41.5437 188.656 41.1575C188.656 40.6777 188.547 40.2705 188.326 39.9404C188.105 39.6104 187.777 39.3553 187.345 39.1821C186.913 39.0089 186.371 38.9199 185.729 38.9199H181.488V46.2343H183.527V43.7439H184.362C184.629 43.7439 184.839 43.765 184.992 43.8048C185.143 43.8446 185.266 43.9148 185.362 44.0178C185.455 44.1207 185.545 44.2612 185.634 44.4438L186.501 46.2343H188.854L187.954 44.3993C187.817 44.1231 187.666 43.8914 187.503 43.7065L187.501 43.7088ZM186.334 42.0868C186.21 42.1734 186.001 42.2178 185.704 42.2178H183.523V40.7667H185.704C186.001 40.7667 186.21 40.8135 186.334 40.9071C186.457 41.0007 186.517 41.195 186.517 41.4852C186.517 41.7989 186.457 41.9978 186.334 42.0844V42.0868Z" fill="#919BA5"></path><path id="Vector_13" d="M197.659 46.2343H200L196.854 38.9199H193.939L190.805 46.2343H193.092L193.655 44.8814H197.105L197.659 46.2343ZM194.422 43.037L194.85 42.0095L195.315 40.776H195.457L195.934 42.0095L196.352 43.037H194.422Z" fill="#919BA5"></path></g><g id="Group_2"><path id="Vector_14" d="M33.3896 9.38867H40.9854V34.5385H33.3896V9.38867Z" fill="#144196"></path><path id="Vector_15" d="M45.5664 34.5384V18.0933C45.5664 16.3308 45.7896 14.8469 46.236 13.6461C46.6824 12.4454 47.3729 11.467 48.3146 10.7134C49.2539 9.95968 50.4722 9.42368 51.9695 9.10301C53.4668 8.78235 55.2663 8.62085 57.3681 8.62085C59.4699 8.62085 61.2695 8.78235 62.7644 9.10301C64.2617 9.42368 65.48 9.96202 66.4193 10.7134C67.3586 11.467 68.0515 12.4454 68.4979 13.6461C68.9443 14.8492 69.1675 16.3308 69.1675 18.0933V34.5384H61.5717V18.6691C61.5717 17.995 61.5229 17.4192 61.4276 16.937C61.3322 16.4572 61.1416 16.057 60.8533 15.7363C60.5673 15.4156 60.1442 15.1839 59.5885 15.0388C59.0305 14.8937 58.2911 14.8211 57.3681 14.8211C56.4451 14.8211 55.7034 14.8937 55.1477 15.0388C54.5897 15.1816 54.1689 15.4156 53.8829 15.7363C53.597 16.057 53.404 16.4572 53.3087 16.937C53.2133 17.4192 53.1645 17.995 53.1645 18.6691V34.5384H45.5687H45.5664Z" fill="#144196"></path><path id="Vector_16" d="M96.3431 34.5386H82.4419C80.6586 34.5386 79.1706 34.3701 77.9755 34.0331C76.7828 33.696 75.8179 33.1998 75.0856 32.5421C74.3532 31.8844 73.8277 31.0909 73.5092 30.1617C73.1907 29.2325 73.0303 28.1745 73.0303 26.9878V25.979C73.0303 23.3178 73.8254 21.3868 75.418 20.1837C77.0107 18.9806 79.4473 18.3814 82.7255 18.3814C84.3182 18.3814 85.5992 18.5102 86.5711 18.7653C87.5429 19.0228 88.3451 19.327 88.9844 19.6781V19.1492C88.9844 18.4751 88.9286 17.8993 88.817 17.4171C88.7054 16.9349 88.4822 16.5277 88.1474 16.1906C87.8126 15.8536 87.336 15.6055 86.7152 15.4463C86.0944 15.2872 85.2575 15.2052 84.2066 15.2052H79.9797C79.1683 15.2052 78.3475 15.2146 77.5198 15.2286C76.6921 15.245 75.9272 15.2684 75.2274 15.3012V9.38649C76.1504 9.35372 78.4103 9.33032 79.8123 9.31393C81.2143 9.29755 82.8371 9.29053 84.6855 9.29053C88.6659 9.29053 91.6024 9.98803 93.4973 11.383C95.3921 12.778 96.3407 15.1093 96.3407 18.3791V34.5363L96.3431 34.5386ZM80.3424 26.5572C80.3424 27.4864 80.5958 28.1605 81.1073 28.5771C81.6165 28.9937 82.5395 29.2021 83.8764 29.2021H88.9403V26.4121C88.9403 25.4196 88.6775 24.6894 88.1521 24.2236C87.6266 23.7601 86.5199 23.5261 84.832 23.5261H84.1624C82.6651 23.5261 81.6537 23.7274 81.1306 24.1276C80.6051 24.5302 80.3424 25.2254 80.3424 26.2201V26.5572Z" fill="#144196"></path><path id="Vector_17" d="M91.8896 1.93091H75.2217V6.6168H91.8896V1.93091Z" fill="#919BA5"></path><path id="Vector_18" d="M100.927 34.5384V17.9482C100.927 16.1857 101.167 14.7017 101.644 13.501C102.123 12.3003 102.813 11.3383 103.722 10.615C104.629 9.89414 105.745 9.38155 107.065 9.07727C108.386 8.77299 109.876 8.62085 111.532 8.62085C115.161 8.62085 117.805 9.55007 119.462 11.4109C121.055 9.55241 123.729 8.62085 127.486 8.62085C129.109 8.62085 130.576 8.77299 131.88 9.07727C133.187 9.38155 134.291 9.89414 135.2 10.615C136.107 11.336 136.8 12.2979 137.279 13.501C137.756 14.7041 137.995 16.1857 137.995 17.9482V34.5384H130.399V18.6691C130.399 17.995 130.36 17.4192 130.281 16.937C130.202 16.4572 130.034 16.057 129.778 15.7363C129.523 15.4156 129.165 15.1839 128.704 15.0388C128.242 14.8937 127.614 14.8211 126.816 14.8211C126.084 14.8211 125.48 14.8866 125.001 15.013C124.524 15.1418 124.157 15.3501 123.901 15.638C123.645 15.9259 123.471 16.2863 123.375 16.7193C123.28 17.1524 123.231 17.6743 123.231 18.2829V34.536H115.635V18.6667C115.635 17.9926 115.596 17.4168 115.517 16.9347C115.438 16.4549 115.277 16.0546 115.04 15.7339C114.801 15.4133 114.45 15.1816 113.989 15.0364C113.527 14.8913 112.899 14.8188 112.101 14.8188C111.304 14.8188 110.676 14.8913 110.214 15.0364C109.751 15.1792 109.393 15.4133 109.139 15.7339C108.884 16.0546 108.716 16.4549 108.637 16.9347C108.558 17.4168 108.519 17.9926 108.519 18.6667V34.536H100.923L100.927 34.5384Z" fill="#144196"></path><path id="Vector_19" d="M142.58 9.38867H150.176V34.5385H142.58V9.38867Z" fill="#144196"></path><path id="Vector_20" d="M166.655 9.29248H169.64C170.77 9.29248 172.244 9.32525 174.058 9.38845V15.4483C173.516 15.4155 171.877 15.3921 171.43 15.3757C170.984 15.3593 170.538 15.3429 170.094 15.3266C169.647 15.3102 169.178 15.3032 168.685 15.3032H166.941C165.953 15.3032 165.141 15.3687 164.504 15.4951C163.867 15.6238 163.365 15.8789 163 16.2651C162.633 16.649 162.379 17.1944 162.235 17.8989C162.091 18.6057 162.019 19.5326 162.019 20.6889V23.2378C162.019 24.3917 162.091 25.3233 162.235 26.0278C162.377 26.7323 162.64 27.2777 163.023 27.6615C163.405 28.0454 163.914 28.3029 164.551 28.4316C165.188 28.5603 165.983 28.6235 166.939 28.6235H170.593C171.661 28.6235 172.751 28.5908 174.058 28.5276V34.5382C172.784 34.571 170.547 34.5944 169.447 34.6108C168.347 34.6272 167.448 34.6342 166.748 34.6342C164.39 34.6342 162.426 34.4259 160.849 34.0093C159.273 33.5926 157.999 32.9349 157.029 32.0385C156.058 31.142 155.365 29.9694 154.951 28.5276C154.537 27.0858 154.33 25.3233 154.33 23.2378V20.6889C154.33 18.6385 154.546 16.8901 154.974 15.4483C155.404 14.0065 156.113 12.8268 157.099 11.914C158.085 11.0011 159.359 10.3364 160.919 9.91976C162.479 9.50313 164.39 9.29482 166.65 9.29482L166.655 9.29248Z" fill="#144196"></path><path id="Vector_21" d="M199.949 34.5386H186.048C184.265 34.5386 182.777 34.3701 181.582 34.0331C180.389 33.696 179.424 33.1998 178.692 32.5421C177.96 31.8844 177.434 31.0909 177.116 30.1617C176.797 29.2325 176.637 28.1745 176.637 26.9878V25.979C176.637 23.3178 177.432 21.3868 179.024 20.1837C180.617 18.9806 183.054 18.3814 186.332 18.3814C187.925 18.3814 189.206 18.5102 190.178 18.7653C191.149 19.0228 191.951 19.327 192.591 19.6781V19.1492C192.591 18.4751 192.535 17.8993 192.423 17.4171C192.312 16.9349 192.089 16.5277 191.754 16.1906C191.419 15.8536 190.942 15.6055 190.322 15.4463C189.701 15.2872 188.864 15.2052 187.813 15.2052H183.586C182.775 15.2052 181.954 15.2146 181.126 15.2286C180.299 15.245 179.534 15.2684 178.834 15.3012V9.38649C179.757 9.35372 182.017 9.33032 183.419 9.31393C184.821 9.29755 186.444 9.29053 188.292 9.29053C192.272 9.29053 195.209 9.98803 197.104 11.383C198.999 12.778 199.947 15.1093 199.947 18.3791V34.5363L199.949 34.5386ZM183.949 26.5572C183.949 27.4864 184.202 28.1605 184.714 28.5771C185.223 28.9937 186.146 29.2021 187.483 29.2021H192.547V26.4121C192.547 25.4196 192.284 24.6894 191.759 24.2236C191.233 23.7601 190.126 23.5261 188.438 23.5261H187.769C186.272 23.5261 185.26 23.7274 184.737 24.1276C184.212 24.5302 183.949 25.2254 183.949 26.2201V26.5572Z" fill="#144196"></path></g><path id="Vector_22" d="M40.9864 1.91016H33.3906V6.63584H40.9864V1.91016Z" fill="#144196"></path><path id="Vector_23" d="M150.008 1.89136H142.412V6.61704H150.008V1.89136Z" fill="#144196"></path><path id="Vector_24" d="M28.3976 8.44022C27.9349 6.5654 27.1304 5.00187 25.9842 3.75199C24.838 2.50211 23.2919 1.56352 21.3505 0.938583C19.4091 0.3113 16.9725 0 14.043 0H0V6.57944H7.7376V6.58646L13.4222 6.63561C14.8219 6.63561 16.0007 6.75499 16.9562 6.99607C17.9118 7.23481 18.6837 7.67016 19.2719 8.2951C19.8602 8.92004 20.2833 9.77905 20.5391 10.8674C20.7925 11.9581 20.9204 13.3672 20.9204 15.0992V19.3919C20.9204 21.124 20.7925 22.5424 20.5391 23.6471C20.2833 24.7519 19.8625 25.6179 19.2719 26.2429C18.6837 26.8678 17.9118 27.3008 16.9562 27.5419C16.0007 27.783 14.8219 27.9023 13.4222 27.9023H7.7376V9.38817H0V34.538H14.1872C17.0841 34.538 19.4905 34.2173 21.3993 33.576C23.3105 32.9347 24.838 31.9727 25.9842 30.69C27.1304 29.4074 27.9349 27.8298 28.3976 25.9526C28.8579 24.0778 29.0904 21.9057 29.0904 19.4364V15.0477C29.0904 12.5152 28.8579 10.3104 28.3976 8.43554V8.44022Z" fill="#144196"></path><path id="Vector_25" d="M28.3976 8.44022C27.9349 6.5654 27.1304 5.00187 25.9842 3.75199C24.838 2.50211 23.2919 1.56352 21.3505 0.938583C19.4091 0.3113 16.9725 0 14.043 0H0V6.57944H7.7376V6.58646L13.4222 6.63561C14.8219 6.63561 16.0007 6.75499 16.9562 6.99607C17.9118 7.23481 18.6837 7.67016 19.2719 8.2951C19.8602 8.92004 20.2833 9.77905 20.5391 10.8674C20.7925 11.9581 20.9204 13.3672 20.9204 15.0992V19.3919C20.9204 21.124 20.7925 22.5424 20.5391 23.6471C20.2833 24.7519 19.8625 25.6179 19.2719 26.2429C18.6837 26.8678 17.9118 27.3008 16.9562 27.5419C16.0007 27.783 14.8219 27.9023 13.4222 27.9023H7.7376V9.38817H0V34.538H14.1872C17.0841 34.538 19.4905 34.2173 21.3993 33.576C23.3105 32.9347 24.838 31.9727 25.9842 30.69C27.1304 29.4074 27.9349 27.8298 28.3976 25.9526C28.8579 24.0778 29.0904 21.9057 29.0904 19.4364V15.0477C29.0904 12.5152 28.8579 10.3104 28.3976 8.43554V8.44022Z" fill="#144196"></path></g></svg>