<svg xmlns="http://www.w3.org/2000/svg" width="83" height="42" viewBox="0 0 83 42" fill="none"><path d="M66.2322 25.1895L53.6752 12.5828H49.8245V41.6763H54.5747V19.7271L65.6765 31.0746H66.7895L77.8913 19.7271V41.6763H82.6444V12.5828H78.7907L66.2322 25.1895Z" fill="white"></path><path d="M66.2324 0.0268555L57.2531 9.00624L58.553 10.3061L67.5323 1.32676L66.2324 0.0268555Z" fill="white"></path><path d="M70.0733 3.86634L61.094 12.8457L62.3939 14.1456L71.3732 5.16624L70.0733 3.86634Z" fill="white"></path><path d="M73.9122 7.70583L64.9328 16.6852L66.2327 17.9851L75.2121 9.00573L73.9122 7.70583Z" fill="white"></path><path d="M43.4245 26.2118C44.8402 24.7157 45.6402 22.7325 45.6402 20.6806C45.6402 16.2141 41.9781 12.5798 37.4766 12.5798H22.6205V41.6777H38.2429C43.0194 41.6777 46.9053 37.8226 46.9053 33.0855C46.9053 30.358 45.6154 27.8337 43.4245 26.2118ZM37.8334 37.3575H27.3487V16.8971H37.0671C39.1877 16.8971 40.9134 18.5936 40.9134 20.6792C40.9134 22.8875 39.4685 24.4919 37.478 24.4919H30.3425L29.4884 25.346V28.8107H38.2444C40.5244 28.8107 42.1785 30.6081 42.1785 33.0841C42.177 35.4416 40.2275 37.3575 37.8334 37.3575Z" fill="white"></path><path d="M19.5317 40.8222V37.3575H4.72826V28.8107H16.7676L17.6217 27.9566V24.4919H4.72826V16.8971H18.6805L19.5317 16.046V12.5784H0V41.6763H18.6776L19.5317 40.8222Z" fill="white"></path></svg>