<svg xmlns="http://www.w3.org/2000/svg" width="112" height="52" viewBox="0 0 112 52" fill="none"><g id="Layer_1" clip-path="url(#clip0_1_5)"><g id="Group 2"><path id="Vector" d="M76.6633 18.4313C80.0856 16.522 83.8652 15.1137 87.7309 14.7146C91.5758 14.3182 95.7516 14.9197 99.1892 16.4271C102.625 17.9344 105.153 20.074 107.239 22.6169C109.465 25.3287 111.002 28.4229 112 31.3119C109.883 28.1451 107.568 25.284 104.064 23.1123C100.56 20.9407 96.1005 19.8018 92.1263 19.9888C88.141 20.1758 84.2905 21.5604 80.9446 23.4962C79.5157 21.8186 78.0867 20.113 76.6633 18.4327" fill="#6588C5"></path><path id="Vector_2" d="M70.5359 11.1416C74.3141 9.07466 78.4856 7.62315 82.6864 7.16956C86.8691 6.71736 91.4438 7.32448 94.9217 8.68526C98.3996 10.046 100.654 11.7767 102.606 13.8883C104.623 16.0698 105.981 18.5527 106.73 20.9295C104.788 18.4968 102.663 16.3782 99.1683 14.6657C95.6765 12.9518 90.9781 12.053 86.776 12.3936C82.5557 12.7355 78.4175 14.194 74.7825 16.2512C73.3633 14.5708 71.9482 12.8653 70.5345 11.143" fill="#19356A"></path><path id="Vector_3" d="M64.5364 4.27077C68.3048 2.22471 72.4694 0.782982 76.6535 0.240065C80.8237 -0.301457 85.3789 0.104684 88.8513 1.16958C92.3237 2.23588 94.5672 3.6162 96.5314 5.36498C98.5373 7.15144 99.9106 9.21285 100.661 11.3092C98.7152 9.40266 96.5842 7.81718 93.0993 6.57363C89.6158 5.33009 84.9313 4.79415 80.7445 5.31334C76.5382 5.83532 72.4097 7.34683 68.7788 9.44593C67.3638 7.74321 65.9501 6.02374 64.535 4.27217" fill="#6588C5"></path></g><path id="Vector_4" d="M33.9856 18.8527H43.0029L37.4733 50.3684H28.4545L33.9842 18.8527H33.9856ZM44.2137 27.4138L40.2075 50.3629H49.2207L51.2668 38.6462C51.8743 35.3231 53.2254 33.9693 55.3578 33.9693C57.0578 33.9693 57.7098 34.755 57.7098 36.4634C57.7098 37.0286 57.6236 37.7292 57.536 38.4285L55.4454 50.3629H64.5433L66.5478 38.6462C67.4193 33.9693 69.3766 33.9693 70.5512 33.9693C72.2512 33.9693 73.0324 34.582 73.0324 36.3726C73.0324 36.9421 72.9476 37.7292 72.7725 38.6462L70.7277 50.3629H79.827L81.5507 40.4801C82.6669 47.0063 88.3523 52 95.1636 52C102.77 52 108.975 45.7697 108.975 38.1326C108.975 30.4955 102.77 24.2666 95.1636 24.2666C89.4796 24.2666 84.581 27.7432 82.4654 32.6853C82.236 28.4257 79.7714 26.8039 75.2565 26.8039C72.0761 26.8039 69.2904 27.9832 66.5492 30.9979C65.7221 27.7195 62.9781 26.8039 59.9297 26.8039C57.0592 26.7146 53.705 28.6825 51.9202 30.8248L52.529 27.4152H44.2137V27.4138ZM95.1622 32.1577C98.4414 32.1577 101.116 34.8416 101.116 38.1326C101.116 41.4236 98.4414 44.1116 95.1622 44.1116C91.883 44.1116 89.21 41.4264 89.21 38.1326C89.21 34.8388 91.883 32.1577 95.1622 32.1577ZM4.24803 26.1549L0 50.3629H26.2082L27.4704 43.0202H11.5806L12.4077 38.0781H25.3394L26.6864 30.7341H13.7143L14.54 26.1884H29.7793L31.129 18.8458H15.438C8.20553 18.91 5.07511 21.753 4.24664 26.1535L4.24803 26.1549Z" fill="#19356A"></path></g><defs><clipPath id="clip0_1_5"><rect width="112" height="52" fill="white"></rect></clipPath></defs></svg>