<svg xmlns="http://www.w3.org/2000/svg" width="129" height="49" viewBox="0 0 129 49" fill="none"> <g clip-path="url(#clip0_9_210)"> <path d="M108.46 21.1718C105.284 20.2158 102.542 19.3907 102.542 17.1417C102.542 15.2977 104.402 14.0575 107.17 14.0575C110.154 14.0575 112.221 14.9782 113.875 17.0386L114.142 17.3706L117.689 13.8311L117.505 13.5695C115.524 10.7544 111.813 9.20228 107.059 9.20228C100.028 9.20228 96.8269 13.3179 96.8269 17.1392C96.8269 22.7818 101.745 24.3415 106.083 25.7176C109.396 26.7691 112.257 27.6748 112.257 30.1502C112.257 32.3665 110.419 33.6897 107.344 33.6897C103.991 33.6897 101.218 32.4797 99.3275 30.1929L99.0452 29.8508L95.5715 33.7174L95.7757 33.9689C98.1654 36.9173 102.151 38.5424 107.003 38.5424C113.704 38.5424 118.032 35.2041 118.032 30.037C118.032 24.0497 112.728 22.4523 108.463 21.1693L108.46 21.1718ZM19.0573 0C8.54807 0 0 8.6589 0 19.3001C0 29.9414 8.54807 38.5449 19.0573 38.5449C29.5666 38.5449 38.1701 29.9363 38.1701 19.358C38.1701 8.77965 29.5968 0 19.0573 0ZM19.0573 32.7262C11.9839 32.7262 6.23145 26.7037 6.23145 19.3001C6.23145 11.8966 11.9865 5.81872 19.0573 5.81872C26.1282 5.81872 31.9412 11.8915 31.9412 19.358C31.9412 26.8245 26.161 32.7262 19.0573 32.7262ZM54.7546 9.20479C51.1044 9.20479 47.903 10.6538 45.6292 13.3078V9.88654H39.7986V49H45.6292V34.5928C47.8778 37.1512 51.0767 38.5449 54.7546 38.5449C62.5363 38.5449 68.4022 32.2507 68.4022 23.9038C68.4022 15.5568 62.5338 9.20479 54.7546 9.20479ZM54.1269 33.0683C49.2819 33.0683 45.6267 29.1288 45.6267 23.9038C45.6267 18.6788 49.2793 14.6839 54.1269 14.6839C58.9744 14.6839 62.5691 18.6486 62.5691 23.9038C62.5691 29.159 58.9391 33.0683 54.1269 33.0683ZM95.1707 9.88654H89.3401V25.3251C89.3401 29.9263 86.6958 32.8973 82.6045 32.8973C78.5132 32.8973 75.9848 29.9238 75.9848 25.3251V9.88654H70.1542V25.7226C70.1542 33.2922 75.158 38.3764 82.607 38.3764C90.056 38.3764 95.1732 33.2922 95.1732 25.7226V9.88654H95.1707Z" fill="#231F20"></path> <path d="M122.355 38.3764C123.533 38.3764 124.488 37.4235 124.488 36.2481C124.488 35.0728 123.533 34.1199 122.355 34.1199C121.177 34.1199 120.223 35.0728 120.223 36.2481C120.223 37.4235 121.177 38.3764 122.355 38.3764Z" fill="#BE1E2D"></path> <path d="M126.87 38.3764C128.048 38.3764 129.003 37.4235 129.003 36.2481C129.003 35.0728 128.048 34.1199 126.87 34.1199C125.692 34.1199 124.737 35.0728 124.737 36.2481C124.737 37.4235 125.692 38.3764 126.87 38.3764Z" fill="#BE1E2D"></path> <path d="M122.355 33.8708C123.533 33.8708 124.488 32.918 124.488 31.7426C124.488 30.5672 123.533 29.6143 122.355 29.6143C121.177 29.6143 120.223 30.5672 120.223 31.7426C120.223 32.918 121.177 33.8708 122.355 33.8708Z" fill="#BE1E2D"></path> <path d="M126.87 33.8708C128.048 33.8708 129.003 32.918 129.003 31.7426C129.003 30.5672 128.048 29.6143 126.87 29.6143C125.692 29.6143 124.737 30.5672 124.737 31.7426C124.737 32.918 125.692 33.8708 126.87 33.8708Z" fill="#BE1E2D"></path> </g> <defs> <clipPath id="clip0_9_210"> <rect width="129" height="49" fill="white"></rect> </clipPath> </defs> </svg>